<?xml version="1.0" encoding="utf-8"?>
<!-- Generator: Adobe Illustrator 20.0.0, SVG Export Plug-In . SVG Version: 6.00 Build 0)  -->
<svg version="1.1" id="Calque_1" xmlns="http://www.w3.org/2000/svg" xmlns:xlink="http://www.w3.org/1999/xlink" x="0px" y="0px"
	 viewBox="0 0 353 500" style="enable-background:new 0 0 353 500;" xml:space="preserve">
<style type="text/css">
	.st0{fill:#333333;}
</style>
<g>
	<path class="st0" d="M347.7,38.2c-0.4-1.3-0.6-2.8-1.1-4.2c-0.8-2.6-1.9-5.3-3.2-7.7c-0.6-1.1-1.3-2.5-2.1-3.6
		c-7.7-11.3-20.8-18.9-35.5-18.9l0,0H48.5l0,0c-14.7,0-27.8,7.6-35.5,18.9c-0.8,1.1-1.5,2.3-2.1,3.6c-1.3,2.5-2.5,4.9-3.2,7.7
		c-0.4,1.3-0.8,2.6-1.1,4.2C6.1,39.6,6,41.1,6,42.4c-0.2,1.5-0.2,2.8-0.2,4.3v45v361.7c0,23.6,19.1,42.7,42.7,42.7h99.4h58.2h99.4
		c23.6,0,42.7-19.1,42.7-42.7V91.7v-45c0-1.5,0-3-0.2-4.3C348.2,41.1,348,39.6,347.7,38.2z M322.7,453.5c0,9.3-7.6,16.8-16.8,16.8
		H191h-27.2H48.9c-9.3,0-16.8-7.6-16.8-16.8v-32.1h142.5h6h142.1V453.5z M322.7,395.4H180.2h-6H31.7V91.1h291.1V395.4z M322.7,65.3
		H31.7V46.9c0-9.3,7.6-16.8,16.8-16.8h257.2c9.3,0,16.8,7.6,16.8,16.8v18.3H322.7z"/>
	<rect x="150.2" y="439.7" class="st0" width="54.2" height="12.9"/>
</g>
</svg>
