<?xml version="1.0" encoding="utf-8"?>
<!-- Generator: Adobe Illustrator 20.0.0, SVG Export Plug-In . SVG Version: 6.00 Build 0)  -->
<svg version="1.1" id="Calque_2" xmlns="http://www.w3.org/2000/svg" xmlns:xlink="http://www.w3.org/1999/xlink" x="0px" y="0px"
	 viewBox="0 0 500 500" style="enable-background:new 0 0 500 500;" xml:space="preserve">
<path d="M250,101.9c70.7,0,127.7,61.4,127.7,137.3c0,55.4-18.5,71.1-114.9,221.7c-3.2,4.8-8.1,7.2-13,7.2c-4.9,0-9.7-2.4-12.7-7.2
	C140,310.3,122.3,294.6,122.3,239.2C122.3,163.3,179.3,101.9,250,101.9 M250,296.2c34.9,0,63-28.1,63-63c0-34.9-28.1-63-63-63
	s-63,28.1-63,63C187,268.1,215.1,296.2,250,296.2 M250,79.9c-20.4,0-40.2,4.3-58.9,12.8c-17.9,8.1-33.9,19.7-47.6,34.5
	c-27.9,30-43.2,69.8-43.2,112.1c0,27.6,4.3,46.7,15.8,70.6c11.2,23.1,29.5,51.1,59.9,97.4c12.3,18.8,26.3,40.1,42.7,65.5
	c6.9,10.9,18.6,17.4,31.3,17.4c12.5,0,24.2-6.4,31.3-17l0.1-0.2l0.1-0.2c17.9-27.9,32.8-50.8,45.9-70.9c28.9-44.2,46.3-70.9,57-93.4
	c11.2-23.4,15.3-42.1,15.3-69.2c0-42.3-15.4-82.1-43.2-112.1c-13.7-14.8-29.7-26.4-47.6-34.5C290.2,84.2,270.4,79.9,250,79.9
	L250,79.9z M250,274.2c-11,0-21.3-4.3-29.1-12c-7.7-7.7-12-18-12-29.1c0-11,4.3-21.3,12-29.1c7.7-7.7,18-12,29.1-12
	s21.3,4.3,29.1,12c7.7,7.7,12,18,12,29.1c0,11-4.3,21.3-12,29.1C271.3,270,261,274.2,250,274.2L250,274.2z"/>
</svg>
