<?xml version="1.0" encoding="utf-8"?>
<!-- Generator: Adobe Illustrator 20.0.0, SVG Export Plug-In . SVG Version: 6.00 Build 0)  -->
<svg version="1.1" id="Twitter_1_" xmlns="http://www.w3.org/2000/svg" xmlns:xlink="http://www.w3.org/1999/xlink" x="0px" y="0px"
	 viewBox="0 0 92 92" style="enable-background:new 0 0 92 92;" xml:space="preserve">
<path d="M46,0C20.6,0,0,20.6,0,46s20.6,46,46,46s46-20.6,46-46S71.4,0,46,0z M65.7,35.5c0,0.5,0,0.9,0,1.4
	c0,14.1-10.2,30.4-28.9,30.4c-5.7,0-11.1-1.8-15.6-4.9c0.8,0.1,1.6,0.2,2.4,0.2c4.8,0,9.1-1.7,12.6-4.6c-4.4-0.1-8.2-3.3-9.5-7.6
	c0.6,0.1,1.3,0.2,1.9,0.2c0.9,0,1.8-0.1,2.7-0.4c-4.6-1-8.2-5.4-8.2-10.7c0,0,0-0.1,0-0.1c1.4,0.8,2.9,1.3,4.6,1.4
	c-2.7-2-4.5-5.3-4.5-9.1c0-2,0.5-3.8,1.4-5.4c5,6.6,12.5,11,20.9,11.6c-0.2-0.8-0.3-1.6-0.3-2.5c0-5.9,4.6-10.7,10.2-10.6
	c2.9,0,5.6,1.4,7.4,3.5c2.3-0.4,4.5-1.3,6.5-2.5c-0.8,2.5-2.4,4.5-4.5,5.8c2.1-0.2,4-0.8,5.8-1.6C69.4,32.1,67.7,34,65.7,35.5z"/>
</svg>
